<?xml version="1.0" encoding="UTF-8" standalone="no"?>
<!DOCTYPE svg PUBLIC "-//W3C//DTD SVG 1.1//EN"
 "http://www.w3.org/Graphics/SVG/1.1/DTD/svg11.dtd">
<!-- Generated by graphviz version 2.43.0 (0)
 -->
<!-- Title: G Pages: 1 -->
<svg width="1523pt" height="875pt"
 viewBox="0.00 0.00 1523.00 875.00" xmlns="http://www.w3.org/2000/svg" xmlns:xlink="http://www.w3.org/1999/xlink">
<g id="graph0" class="graph" transform="scale(1 1) rotate(0) translate(4 871)">
<title>G</title>
<polygon fill="white" stroke="transparent" points="-4,4 -4,-871 1519,-871 1519,4 -4,4"/>
<g id="clust1" class="cluster">
<title>cluster_0</title>
<polygon fill="none" stroke="black" points="8,-154 8,-859 850,-859 850,-154 8,-154"/>
<text text-anchor="start" x="392.5" y="-840" font-family="Times,serif" font-weight="bold" font-size="20.00">Parser</text>
</g>
<g id="clust2" class="cluster">
<title>cluster_1</title>
<polygon fill="lightgrey" stroke="lightgrey" points="890,-8 890,-744 1507,-744 1507,-8 890,-8"/>
<text text-anchor="start" x="1167" y="-725" font-family="Times,serif" font-weight="bold" font-size="20.00">Lexer</text>
</g>
<!-- generate -->
<g id="node1" class="node">
<title>generate</title>
<polygon fill="lightgrey" stroke="black" points="357,-821 283.43,-803 357,-785 430.57,-803 357,-821"/>
<polyline fill="none" stroke="black" points="295.09,-805.85 295.09,-800.15 "/>
<polyline fill="none" stroke="black" points="345.34,-787.85 368.66,-787.85 "/>
<polyline fill="none" stroke="black" points="418.91,-800.15 418.91,-805.85 "/>
<polyline fill="none" stroke="black" points="368.66,-818.15 345.34,-818.15 "/>
<text text-anchor="middle" x="357" y="-799.3" font-family="Times,serif" font-size="14.00">generate</text>
</g>
<!-- generateModule -->
<g id="node3" class="node">
<title>generateModule</title>
<ellipse fill="lightgrey" stroke="black" cx="123" cy="-488" rx="87.18" ry="18"/>
<text text-anchor="middle" x="123" y="-484.3" font-family="Times,serif" font-size="14.00">generateModule</text>
</g>
<!-- generate&#45;&gt;generateModule -->
<g id="edge1" class="edge">
<title>generate&#45;&gt;generateModule</title>
<path fill="none" stroke="black" d="M376.61,-789.75C384.15,-783.89 391.92,-776.14 396,-767 406.63,-743.18 435.06,-734.19 388,-670 339.73,-604.16 285.17,-645.82 219,-598 186.6,-574.59 157.51,-538.37 140.06,-514.19"/>
<polygon fill="black" stroke="black" points="142.81,-512.01 134.17,-505.87 137.09,-516.05 142.81,-512.01"/>
<text text-anchor="start" x="414" y="-684.3" font-family="Times,serif" font-size="14.00" fill="blue">js</text>
</g>
<!-- generateAMDModule -->
<g id="node4" class="node">
<title>generateAMDModule</title>
<ellipse fill="lightgrey" stroke="black" cx="732" cy="-634" rx="109.68" ry="18"/>
<text text-anchor="middle" x="732" y="-630.3" font-family="Times,serif" font-size="14.00">generateAMDModule</text>
</g>
<!-- generate&#45;&gt;generateAMDModule -->
<g id="edge2" class="edge">
<title>generate&#45;&gt;generateAMDModule</title>
<path fill="none" stroke="black" d="M405.56,-796.88C496.04,-786.9 683.28,-764.1 705,-744 727.31,-723.36 732.46,-687.42 733.08,-662.48"/>
<polygon fill="black" stroke="black" points="736.58,-662.22 733.09,-652.22 729.58,-662.21 736.58,-662.22"/>
<text text-anchor="start" x="688" y="-755.8" font-family="Times,serif" font-size="14.00" fill="blue">amd</text>
</g>
<!-- generateCommonJSModule -->
<g id="node5" class="node">
<title>generateCommonJSModule</title>
<ellipse fill="lightgrey" stroke="black" cx="241" cy="-688" rx="137.58" ry="18"/>
<text text-anchor="middle" x="241" y="-684.3" font-family="Times,serif" font-size="14.00">generateCommonJSModule</text>
</g>
<!-- generate&#45;&gt;generateCommonJSModule -->
<g id="edge3" class="edge">
<title>generate&#45;&gt;generateCommonJSModule</title>
<path fill="none" stroke="black" d="M342.78,-788.14C323.56,-769.43 289.02,-735.78 265.56,-712.92"/>
<polygon fill="black" stroke="black" points="267.97,-710.39 258.37,-705.92 263.09,-715.4 267.97,-710.39"/>
<text text-anchor="start" x="319" y="-755.8" font-family="Times,serif" font-size="14.00" fill="blue">commonjs</text>
</g>
<!-- generateModuleCore -->
<g id="node6" class="node">
<title>generateModuleCore</title>
<ellipse fill="lightgrey" stroke="black" cx="556" cy="-342" rx="108.58" ry="18"/>
<text text-anchor="middle" x="556" y="-338.3" font-family="Times,serif" font-size="14.00">generateModuleCore</text>
</g>
<!-- generate&#45;&gt;generateModuleCore -->
<g id="edge4" class="edge">
<title>generate&#45;&gt;generateModuleCore</title>
<path fill="none" stroke="black" d="M298.37,-799.3C217.22,-794.26 76.82,-780.4 43,-744 2.61,-700.53 14.41,-391.45 27,-378 54.42,-348.71 289.91,-343.08 437.3,-342.47"/>
<polygon fill="black" stroke="black" points="437.33,-345.97 447.32,-342.44 437.31,-338.97 437.33,-345.97"/>
<text text-anchor="start" x="43" y="-684.3" font-family="Times,serif" font-size="14.00" fill="blue">default</text>
</g>
<!-- generateModuleCode -->
<g id="node2" class="node">
<title>generateModuleCode</title>
<polygon fill="lightgrey" stroke="black" points="798,-198 628,-198 628,-162 798,-162 798,-198"/>
<text text-anchor="middle" x="713" y="-176.3" font-family="Times,serif" font-size="14.00">generateModuleCode</text>
</g>
<!-- generateModuleExpr -->
<g id="node7" class="node">
<title>generateModuleExpr</title>
<ellipse fill="lightgrey" stroke="black" cx="713" cy="-288" rx="109.38" ry="18"/>
<text text-anchor="middle" x="713" y="-284.3" font-family="Times,serif" font-size="14.00">generateModuleExpr</text>
</g>
<!-- generateModule&#45;&gt;generateModuleExpr -->
<g id="edge7" class="edge">
<title>generateModule&#45;&gt;generateModuleExpr</title>
<path fill="none" stroke="black" d="M132.04,-469.89C146.52,-444.49 177.56,-397.72 219,-378 264.69,-356.26 630.97,-386.62 674,-360 689.8,-350.23 699.67,-331.64 705.53,-315.94"/>
<polygon fill="black" stroke="black" points="708.95,-316.75 708.83,-306.15 702.32,-314.51 708.95,-316.75"/>
</g>
<!-- generateAMDModule&#45;&gt;generateModuleCode -->
<g id="edge5" class="edge">
<title>generateAMDModule&#45;&gt;generateModuleCode</title>
<path fill="none" stroke="black" d="M803.17,-620.01C814.11,-614.91 824.05,-607.82 831,-598 852.04,-568.24 847.25,-302.62 831,-270 816.21,-240.31 786.27,-217.92 760.25,-203.01"/>
<polygon fill="black" stroke="black" points="761.69,-199.81 751.24,-198.06 758.32,-205.94 761.69,-199.81"/>
</g>
<!-- LgenerateModule -->
<g id="node13" class="node">
<title>LgenerateModule</title>
<ellipse fill="pink" stroke="pink" cx="1133" cy="-180" rx="87.18" ry="18"/>
<text text-anchor="middle" x="1133" y="-176.3" font-family="Times,serif" font-size="14.00">generateModule</text>
</g>
<!-- generateAMDModule&#45;&gt;LgenerateModule -->
<g id="edge14" class="edge">
<title>generateAMDModule&#45;&gt;LgenerateModule</title>
<path fill="none" stroke="black" d="M808.47,-621.06C821.53,-615.88 833.83,-608.5 843,-598 956.38,-468.27 786.19,-336.85 909,-216 927.38,-197.91 985.65,-189.17 1038.14,-184.95"/>
<polygon fill="black" stroke="black" points="1038.5,-188.43 1048.21,-184.18 1037.98,-181.45 1038.5,-188.43"/>
</g>
<!-- generateCommonJSModule&#45;&gt;generateModule -->
<g id="edge6" class="edge">
<title>generateCommonJSModule&#45;&gt;generateModule</title>
<path fill="none" stroke="black" d="M230.73,-669.78C209.94,-634.87 162.72,-555.66 138.29,-514.66"/>
<polygon fill="black" stroke="black" points="141.28,-512.84 133.16,-506.04 135.27,-516.43 141.28,-512.84"/>
</g>
<!-- generateModuleCore&#45;&gt;generateModuleCode -->
<g id="edge8" class="edge">
<title>generateModuleCore&#45;&gt;generateModuleCode</title>
<path fill="none" stroke="black" d="M562.89,-323.97C569.59,-308.74 580.83,-286.38 595,-270 618.06,-243.36 650.33,-219.69 675.3,-203.47"/>
<polygon fill="black" stroke="black" points="677.24,-206.38 683.79,-198.05 673.48,-200.48 677.24,-206.38"/>
</g>
<!-- LgenerateModuleCore -->
<g id="node14" class="node">
<title>LgenerateModuleCore</title>
<polygon fill="pink" stroke="pink" points="1087.5,-52 920.5,-52 920.5,-16 1087.5,-16 1087.5,-52"/>
<text text-anchor="middle" x="1004" y="-30.3" font-family="Times,serif" font-size="14.00">generateModuleCore</text>
</g>
<!-- generateModuleCore&#45;&gt;LgenerateModuleCore -->
<g id="edge15" class="edge">
<title>generateModuleCore&#45;&gt;LgenerateModuleCore</title>
<path fill="none" stroke="black" d="M556,-323.74C556,-302.76 556,-266.28 556,-235 556,-235 556,-235 556,-106 556,-70.46 778.83,-49.73 910.19,-40.6"/>
<polygon fill="black" stroke="black" points="910.52,-44.09 920.26,-39.91 910.04,-37.11 910.52,-44.09"/>
</g>
<!-- generateModuleExpr&#45;&gt;generateModuleCode -->
<g id="edge9" class="edge">
<title>generateModuleExpr&#45;&gt;generateModuleCode</title>
<path fill="none" stroke="black" d="M713,-269.97C713,-253.38 713,-227.88 713,-208.43"/>
<polygon fill="black" stroke="black" points="716.5,-208.34 713,-198.34 709.5,-208.34 716.5,-208.34"/>
</g>
<!-- generateModuleExpr&#45;&gt;LgenerateModule -->
<g id="edge16" class="edge">
<title>generateModuleExpr&#45;&gt;LgenerateModule</title>
<path fill="none" stroke="black" d="M742.19,-270.54C772.81,-254.04 822.81,-229.26 869,-216 924.62,-200.04 988.96,-191.32 1040.19,-186.57"/>
<polygon fill="black" stroke="black" points="1040.61,-190.05 1050.26,-185.68 1039.99,-183.08 1040.61,-190.05"/>
</g>
<!-- Jison_Generator -->
<g id="node8" class="node">
<title>Jison_Generator</title>
<polygon fill="lightgrey" stroke="black" points="680,-821 559.68,-803 680,-785 800.32,-803 680,-821"/>
<polyline fill="none" stroke="black" points="571.55,-804.78 571.55,-801.22 "/>
<polyline fill="none" stroke="black" points="668.13,-786.78 691.87,-786.78 "/>
<polyline fill="none" stroke="black" points="788.45,-801.22 788.45,-804.78 "/>
<polyline fill="none" stroke="black" points="691.87,-819.22 668.13,-819.22 "/>
<text text-anchor="middle" x="680" y="-799.3" font-family="Times,serif" font-size="14.00">Jison_Generator</text>
</g>
<!-- processGrammar -->
<g id="node9" class="node">
<title>processGrammar</title>
<ellipse fill="lightgrey" stroke="black" cx="574" cy="-688" rx="121.58" ry="18"/>
<text text-anchor="middle" x="574" y="-684.3" font-family="Times,serif" font-size="14.00">processGrammar{,Def}</text>
</g>
<!-- Jison_Generator&#45;&gt;processGrammar -->
<g id="edge10" class="edge">
<title>Jison_Generator&#45;&gt;processGrammar</title>
<path fill="none" stroke="black" d="M665.7,-786.76C648.11,-768.01 618.01,-735.92 597.12,-713.64"/>
<polygon fill="black" stroke="black" points="599.54,-711.11 590.15,-706.21 594.43,-715.9 599.54,-711.11"/>
</g>
<!-- LRegExpLexer -->
<g id="node16" class="node">
<title>LRegExpLexer</title>
<polygon fill="pink" stroke="pink" points="1183,-706 1079.27,-688 1183,-670 1286.73,-688 1183,-706"/>
<polyline fill="none" stroke="pink" points="1091.09,-690.05 1091.09,-685.95 "/>
<polyline fill="none" stroke="pink" points="1171.18,-672.05 1194.82,-672.05 "/>
<polyline fill="none" stroke="pink" points="1274.91,-685.95 1274.91,-690.05 "/>
<polyline fill="none" stroke="pink" points="1194.82,-703.95 1171.18,-703.95 "/>
<text text-anchor="middle" x="1183" y="-684.3" font-family="Times,serif" font-size="14.00">RegExpLexer</text>
</g>
<!-- Jison_Generator&#45;&gt;LRegExpLexer -->
<g id="edge17" class="edge">
<title>Jison_Generator&#45;&gt;LRegExpLexer</title>
<path fill="none" stroke="black" d="M762.13,-797.21C842.4,-790.82 967.31,-776.29 1071,-744 1099.78,-735.04 1130.35,-719.57 1152.28,-707.32"/>
<polygon fill="black" stroke="black" points="1154.15,-710.28 1161.11,-702.29 1150.69,-704.2 1154.15,-710.28"/>
</g>
<!-- processOperators -->
<g id="node10" class="node">
<title>processOperators</title>
<ellipse fill="lightgrey" stroke="black" cx="729" cy="-488" rx="92.88" ry="18"/>
<text text-anchor="middle" x="729" y="-484.3" font-family="Times,serif" font-size="14.00">processOperators</text>
</g>
<!-- processGrammar&#45;&gt;processOperators -->
<g id="edge11" class="edge">
<title>processGrammar&#45;&gt;processOperators</title>
<path fill="none" stroke="black" d="M581.92,-669.97C589.14,-655.15 600.56,-633.38 613,-616 628.14,-594.85 676.41,-543.66 705.69,-513.12"/>
<polygon fill="black" stroke="black" points="708.29,-515.46 712.7,-505.83 703.24,-510.61 708.29,-515.46"/>
</g>
<!-- buildProductions -->
<g id="node11" class="node">
<title>buildProductions</title>
<ellipse fill="lightgrey" stroke="black" cx="318" cy="-488" rx="89.88" ry="18"/>
<text text-anchor="middle" x="318" y="-484.3" font-family="Times,serif" font-size="14.00">buildProductions</text>
</g>
<!-- processGrammar&#45;&gt;buildProductions -->
<g id="edge12" class="edge">
<title>processGrammar&#45;&gt;buildProductions</title>
<path fill="none" stroke="black" d="M538,-670.69C504.8,-654.73 455.05,-628.43 417,-598 385.71,-572.97 355.62,-537.73 336.99,-514.16"/>
<polygon fill="black" stroke="black" points="339.58,-511.78 330.67,-506.05 334.05,-516.09 339.58,-511.78"/>
</g>
<!-- augmentGrammar -->
<g id="node12" class="node">
<title>augmentGrammar</title>
<ellipse fill="lightgrey" stroke="black" cx="522" cy="-488" rx="96.38" ry="18"/>
<text text-anchor="middle" x="522" y="-484.3" font-family="Times,serif" font-size="14.00">augmentGrammar</text>
</g>
<!-- processGrammar&#45;&gt;augmentGrammar -->
<g id="edge13" class="edge">
<title>processGrammar&#45;&gt;augmentGrammar</title>
<path fill="none" stroke="black" d="M569.48,-669.78C560.41,-635.24 539.94,-557.31 529.08,-515.96"/>
<polygon fill="black" stroke="black" points="532.4,-514.83 526.48,-506.04 525.63,-516.61 532.4,-514.83"/>
</g>
<!-- LgenerateModuleFunction -->
<g id="node21" class="node">
<title>LgenerateModuleFunction</title>
<ellipse fill="pink" stroke="pink" cx="1027" cy="-107" rx="128.08" ry="18"/>
<text text-anchor="middle" x="1027" y="-103.3" font-family="Times,serif" font-size="14.00">generateModuleFunction</text>
</g>
<!-- LgenerateModule&#45;&gt;LgenerateModuleFunction -->
<g id="edge27" class="edge">
<title>LgenerateModule&#45;&gt;LgenerateModuleFunction</title>
<path fill="none" stroke="black" d="M1108.68,-162.71C1094.34,-153.11 1076,-140.82 1060.33,-130.32"/>
<polygon fill="black" stroke="black" points="1062.2,-127.36 1051.94,-124.71 1058.3,-133.18 1062.2,-127.36"/>
</g>
<!-- Lgenerate -->
<g id="node15" class="node">
<title>Lgenerate</title>
<polygon fill="pink" stroke="pink" points="988,-706 914.43,-688 988,-670 1061.57,-688 988,-706"/>
<polyline fill="none" stroke="pink" points="926.09,-690.85 926.09,-685.15 "/>
<polyline fill="none" stroke="pink" points="976.34,-672.85 999.66,-672.85 "/>
<polyline fill="none" stroke="pink" points="1049.91,-685.15 1049.91,-690.85 "/>
<polyline fill="none" stroke="pink" points="999.66,-703.15 976.34,-703.15 "/>
<text text-anchor="middle" x="988" y="-684.3" font-family="Times,serif" font-size="14.00">generate</text>
</g>
<!-- LgenerateFromOpts -->
<g id="node19" class="node">
<title>LgenerateFromOpts</title>
<ellipse fill="pink" stroke="pink" cx="1400" cy="-488" rx="98.58" ry="18"/>
<text text-anchor="middle" x="1400" y="-484.3" font-family="Times,serif" font-size="14.00">generateFromOpts</text>
</g>
<!-- Lgenerate&#45;&gt;LgenerateFromOpts -->
<g id="edge23" class="edge">
<title>Lgenerate&#45;&gt;LgenerateFromOpts</title>
<path fill="none" stroke="black" d="M1024.38,-678.83C1094.82,-662.61 1246.97,-625.55 1293,-598 1329.43,-576.2 1362.15,-539.02 1381.55,-514.24"/>
<polygon fill="black" stroke="black" points="1384.53,-516.1 1387.84,-506.04 1378.98,-511.84 1384.53,-516.1"/>
</g>
<!-- LgenerateModuleBody -->
<g id="node20" class="node">
<title>LgenerateModuleBody</title>
<polygon fill="pink" stroke="pink" points="1082.5,-413 1082.5,-563 1283.5,-563 1283.5,-413 1082.5,-413"/>
<polygon fill="#eeeeee" stroke="transparent" points="1090.5,-417 1090.5,-559 1275.5,-559 1275.5,-417 1090.5,-417"/>
<polygon fill="none" stroke="pink" points="1094,-535 1094,-556 1271,-556 1271,-535 1094,-535"/>
<text text-anchor="start" x="1097" y="-542.8" font-family="Times,serif" font-weight="bold" font-size="14.00">generateModuleBody</text>
<polygon fill="none" stroke="pink" points="1094,-466 1094,-533 1142,-533 1142,-466 1094,-466"/>
<text text-anchor="start" x="1097" y="-518.8" font-family="Times,serif" font-size="14.00">strs:</text>
<polygon fill="none" stroke="pink" points="1144,-512 1144,-533 1271,-533 1271,-512 1144,-512"/>
<text text-anchor="start" x="1147" y="-518.8" font-family="Times,serif" font-size="14.00">performActions</text>
<polygon fill="none" stroke="pink" points="1144,-489 1144,-510 1271,-510 1271,-489 1144,-489"/>
<text text-anchor="start" x="1147" y="-495.8" font-family="Times,serif" font-size="14.00">rules</text>
<polygon fill="none" stroke="pink" points="1144,-466 1144,-487 1273,-487 1273,-466 1144,-466"/>
<text text-anchor="start" x="1147" y="-472.8" font-family="Times,serif" font-size="14.00">conditions</text>
<polygon fill="none" stroke="pink" points="1094,-443 1094,-464 1271,-464 1271,-443 1094,-443"/>
<text text-anchor="start" x="1097" y="-449.8" font-family="Times,serif" font-size="14.00">templates</text>
<polygon fill="none" stroke="pink" points="1094,-420 1094,-441 1271,-441 1271,-420 1094,-420"/>
<text text-anchor="start" x="1097" y="-426.8" font-family="Times,serif" font-size="14.00">options</text>
<polygon fill="none" stroke="pink" points="1090.5,-417 1090.5,-559 1275.5,-559 1275.5,-417 1090.5,-417"/>
</g>
<!-- Lgenerate&#45;&gt;LgenerateModuleBody -->
<g id="edge22" class="edge">
<title>Lgenerate&#45;&gt;LgenerateModuleBody</title>
<path fill="none" stroke="black" d="M1001.71,-673.08C1022.77,-651.7 1064.64,-609.18 1102.85,-570.39"/>
<polygon fill="black" stroke="black" points="1105.41,-572.77 1109.93,-563.19 1100.42,-567.86 1105.41,-572.77"/>
</g>
<!-- LprocessGrammar -->
<g id="node22" class="node">
<title>LprocessGrammar</title>
<polygon fill="pink" stroke="pink" points="898,-378.5 898,-597.5 1064,-597.5 1064,-378.5 898,-378.5"/>
<polygon fill="#eeeeee" stroke="transparent" points="906,-382.5 906,-593.5 1056,-593.5 1056,-382.5 906,-382.5"/>
<polygon fill="none" stroke="pink" points="909,-569 909,-590 1053,-590 1053,-569 909,-569"/>
<text text-anchor="start" x="912" y="-576.8" font-family="Times,serif" font-weight="bold" font-size="14.00">processGrammar</text>
<polygon fill="none" stroke="pink" points="909,-546 909,-567 1036,-567 1036,-546 909,-546"/>
<text text-anchor="start" x="912" y="-552.8" font-family="Times,serif" font-size="14.00">moduleType</text>
<polygon fill="none" stroke="pink" points="909,-523 909,-544 1036,-544 1036,-523 909,-523"/>
<text text-anchor="start" x="912" y="-529.8" font-family="Times,serif" font-size="14.00">moduleName</text>
<polygon fill="none" stroke="pink" points="909,-500 909,-521 1036,-521 1036,-500 909,-500"/>
<text text-anchor="start" x="912" y="-506.8" font-family="Times,serif" font-size="14.00">conditions</text>
<polygon fill="none" stroke="pink" points="909,-477 909,-498 1036,-498 1036,-477 909,-477"/>
<text text-anchor="start" x="912" y="-483.8" font-family="Times,serif" font-size="14.00">conditions</text>
<polygon fill="none" stroke="pink" points="909,-454 909,-475 1036,-475 1036,-454 909,-454"/>
<text text-anchor="start" x="912" y="-460.8" font-family="Times,serif" font-size="14.00">actionInclude</text>
<polygon fill="none" stroke="pink" points="909,-431 909,-452 1036,-452 1036,-431 909,-431"/>
<text text-anchor="start" x="912" y="-437.8" font-family="Times,serif" font-size="14.00">performAction</text>
<polygon fill="none" stroke="pink" points="909,-408 909,-429 1036,-429 1036,-408 909,-408"/>
<text text-anchor="start" x="912" y="-414.8" font-family="Times,serif" font-size="14.00">conditionStack</text>
<polygon fill="none" stroke="pink" points="909,-385 909,-406 1036,-406 1036,-385 909,-385"/>
<text text-anchor="start" x="912" y="-391.8" font-family="Times,serif" font-size="14.00">moduleInclude</text>
<polygon fill="none" stroke="pink" points="906,-382.5 906,-593.5 1056,-593.5 1056,-382.5 906,-382.5"/>
</g>
<!-- Lgenerate&#45;&gt;LprocessGrammar -->
<g id="edge21" class="edge">
<title>Lgenerate&#45;&gt;LprocessGrammar</title>
<path fill="none" stroke="black" d="M987.4,-670.12C986.88,-655.41 986.08,-632.63 985.21,-608.14"/>
<polygon fill="black" stroke="black" points="988.7,-607.81 984.85,-597.94 981.71,-608.06 988.7,-607.81"/>
</g>
<!-- LRegExpLexer&#45;&gt;LgenerateFromOpts -->
<g id="edge20" class="edge">
<title>LRegExpLexer&#45;&gt;LgenerateFromOpts</title>
<path fill="none" stroke="black" d="M1234.95,-678.92C1255.5,-673.78 1278.36,-665.45 1296,-652 1343.33,-615.9 1374.99,-551.6 1389.98,-515.49"/>
<polygon fill="black" stroke="black" points="1393.27,-516.68 1393.77,-506.1 1386.78,-514.07 1393.27,-516.68"/>
</g>
<!-- LRegExpLexer&#45;&gt;LgenerateModuleBody -->
<g id="edge19" class="edge">
<title>LRegExpLexer&#45;&gt;LgenerateModuleBody</title>
<path fill="none" stroke="black" d="M1183,-669.78C1183,-648.1 1183,-609.34 1183,-573.25"/>
<polygon fill="black" stroke="black" points="1186.5,-573.16 1183,-563.16 1179.5,-573.16 1186.5,-573.16"/>
</g>
<!-- LRegExpLexer&#45;&gt;LprocessGrammar -->
<g id="edge18" class="edge">
<title>LRegExpLexer&#45;&gt;LprocessGrammar</title>
<path fill="none" stroke="black" d="M1164.01,-673.16C1141.56,-656.41 1103.51,-626.88 1074,-598 1073.07,-597.09 1072.15,-596.18 1071.22,-595.26"/>
<polygon fill="black" stroke="black" points="1073.64,-592.72 1064.12,-588.06 1068.65,-597.64 1073.64,-592.72"/>
</g>
<!-- LgenerateAMDModule -->
<g id="node17" class="node">
<title>LgenerateAMDModule</title>
<ellipse fill="pink" stroke="pink" cx="1028" cy="-234" rx="109.68" ry="18"/>
<text text-anchor="middle" x="1028" y="-230.3" font-family="Times,serif" font-size="14.00">generateAMDModule</text>
</g>
<!-- LgenerateAMDModule&#45;&gt;LgenerateModuleFunction -->
<g id="edge28" class="edge">
<title>LgenerateAMDModule&#45;&gt;LgenerateModuleFunction</title>
<path fill="none" stroke="black" d="M1027.86,-215.88C1027.7,-195.15 1027.42,-159.95 1027.22,-135.42"/>
<polygon fill="black" stroke="black" points="1030.72,-135.28 1027.14,-125.31 1023.72,-135.34 1030.72,-135.28"/>
</g>
<!-- LgenerateCommonJSModule -->
<g id="node18" class="node">
<title>LgenerateCommonJSModule</title>
<ellipse fill="pink" stroke="pink" cx="1360" cy="-288" rx="137.58" ry="18"/>
<text text-anchor="middle" x="1360" y="-284.3" font-family="Times,serif" font-size="14.00">generateCommonJSModule</text>
</g>
<!-- LgenerateCommonJSModule&#45;&gt;LgenerateModule -->
<g id="edge29" class="edge">
<title>LgenerateCommonJSModule&#45;&gt;LgenerateModule</title>
<path fill="none" stroke="black" d="M1324.53,-270.44C1284.34,-251.67 1218.83,-221.08 1175.82,-201"/>
<polygon fill="black" stroke="black" points="1177.28,-197.81 1166.74,-196.75 1174.32,-204.16 1177.28,-197.81"/>
</g>
<!-- LgenerateFromOpts&#45;&gt;LgenerateModule -->
<g id="edge26" class="edge">
<title>LgenerateFromOpts&#45;&gt;LgenerateModule</title>
<path fill="none" stroke="black" d="M1386.08,-469.98C1366.82,-447.14 1330.19,-406.19 1293,-378 1240.05,-337.87 1201.86,-359.15 1162,-306 1137.42,-273.22 1151.55,-255.85 1142,-216 1141.36,-213.35 1140.68,-210.58 1139.99,-207.83"/>
<polygon fill="black" stroke="black" points="1143.37,-206.89 1137.51,-198.06 1136.58,-208.62 1143.37,-206.89"/>
<text text-anchor="start" x="1162" y="-284.3" font-family="Times,serif" font-size="14.00" fill="blue">default</text>
</g>
<!-- LgenerateFromOpts&#45;&gt;LgenerateAMDModule -->
<g id="edge25" class="edge">
<title>LgenerateFromOpts&#45;&gt;LgenerateAMDModule</title>
<path fill="none" stroke="black" d="M1388.98,-469.75C1371.85,-444.64 1336.29,-398.73 1293,-378 1219.69,-342.89 1180.65,-401.9 1111,-360 1073.7,-337.56 1049.73,-291.15 1037.58,-261.63"/>
<polygon fill="black" stroke="black" points="1040.83,-260.34 1033.91,-252.32 1034.32,-262.91 1040.83,-260.34"/>
<text text-anchor="start" x="1111" y="-338.3" font-family="Times,serif" font-size="14.00" fill="blue">amd</text>
</g>
<!-- LgenerateFromOpts&#45;&gt;LgenerateCommonJSModule -->
<g id="edge24" class="edge">
<title>LgenerateFromOpts&#45;&gt;LgenerateCommonJSModule</title>
<path fill="none" stroke="black" d="M1396.52,-469.78C1389.54,-435.24 1373.8,-357.31 1365.45,-315.96"/>
<polygon fill="black" stroke="black" points="1368.85,-315.15 1363.44,-306.04 1361.99,-316.54 1368.85,-315.15"/>
<text text-anchor="start" x="1374" y="-338.3" font-family="Times,serif" font-size="14.00" fill="blue">commonjs</text>
</g>
<!-- LgenerateModuleFunction&#45;&gt;LgenerateModuleCore -->
<g id="edge30" class="edge">
<title>LgenerateModuleFunction&#45;&gt;LgenerateModuleCore</title>
<path fill="none" stroke="black" d="M1021.43,-88.81C1018.8,-80.7 1015.61,-70.84 1012.67,-61.78"/>
<polygon fill="black" stroke="black" points="1015.93,-60.46 1009.52,-52.03 1009.27,-62.62 1015.93,-60.46"/>
</g>
</g>
</svg>
